<?xml version="1.0" encoding="UTF-8"?>
<svg id="mermaid-1782730558676" width="830.62109375" xmlns="http://www.w3.org/2000/svg" xmlns:xlink="http://www.w3.org/1999/xlink" class="classDiagram" style="max-width: 830.62109375px;" viewBox="0 0 830.62109375 589" role="graphics-document document" aria-roledescription="class" height="589"><rect x="0" y="0" width="830.62109375" height="589" fill="#ffffff"></rect><style>#mermaid-1782730558676{font-family:"trebuchet ms",verdana,arial,sans-serif;font-size:16px;fill:#333;}@keyframes edge-animation-frame{from{stroke-dashoffset:0;}}@keyframes dash{to{stroke-dashoffset:0;}}#mermaid-1782730558676 .edge-animation-slow{stroke-dasharray:9,5!important;stroke-dashoffset:900;animation:dash 50s linear infinite;stroke-linecap:round;}#mermaid-1782730558676 .edge-animation-fast{stroke-dasharray:9,5!important;stroke-dashoffset:900;animation:dash 20s linear infinite;stroke-linecap:round;}#mermaid-1782730558676 .error-icon{fill:#552222;}#mermaid-1782730558676 .error-text{fill:#552222;stroke:#552222;}#mermaid-1782730558676 .edge-thickness-normal{stroke-width:1px;}#mermaid-1782730558676 .edge-thickness-thick{stroke-width:3.5px;}#mermaid-1782730558676 .edge-pattern-solid{stroke-dasharray:0;}#mermaid-1782730558676 .edge-thickness-invisible{stroke-width:0;fill:none;}#mermaid-1782730558676 .edge-pattern-dashed{stroke-dasharray:3;}#mermaid-1782730558676 .edge-pattern-dotted{stroke-dasharray:2;}#mermaid-1782730558676 .marker{fill:#333333;stroke:#333333;}#mermaid-1782730558676 .marker.cross{stroke:#333333;}#mermaid-1782730558676 svg{font-family:"trebuchet ms",verdana,arial,sans-serif;font-size:16px;}#mermaid-1782730558676 p{margin:0;}#mermaid-1782730558676 g.classGroup text{fill:#9370DB;stroke:none;font-family:"trebuchet ms",verdana,arial,sans-serif;font-size:10px;}#mermaid-1782730558676 g.classGroup text .title{font-weight:bolder;}#mermaid-1782730558676 .cluster-label text{fill:#333;}#mermaid-1782730558676 .cluster-label span{color:#333;}#mermaid-1782730558676 .cluster-label span p{background-color:transparent;}#mermaid-1782730558676 .cluster rect{fill:#ffffde;stroke:#aaaa33;stroke-width:1px;}#mermaid-1782730558676 .cluster text{fill:#333;}#mermaid-1782730558676 .cluster span{color:#333;}#mermaid-1782730558676 .nodeLabel,#mermaid-1782730558676 .edgeLabel{color:#131300;}#mermaid-1782730558676 .noteLabel .nodeLabel,#mermaid-1782730558676 .noteLabel .edgeLabel{color:black;}#mermaid-1782730558676 .edgeLabel .label rect{fill:#ECECFF;}#mermaid-1782730558676 .label text{fill:#131300;}#mermaid-1782730558676 .labelBkg{background:#ECECFF;}#mermaid-1782730558676 .edgeLabel .label span{background:#ECECFF;}#mermaid-1782730558676 .classTitle{font-weight:bolder;}#mermaid-1782730558676 .node rect,#mermaid-1782730558676 .node circle,#mermaid-1782730558676 .node ellipse,#mermaid-1782730558676 .node polygon,#mermaid-1782730558676 .node path{fill:#ECECFF;stroke:#9370DB;stroke-width:1;}#mermaid-1782730558676 .divider{stroke:#9370DB;stroke-width:1;}#mermaid-1782730558676 g.clickable{cursor:pointer;}#mermaid-1782730558676 g.classGroup rect{fill:#ECECFF;stroke:#9370DB;}#mermaid-1782730558676 g.classGroup line{stroke:#9370DB;stroke-width:1;}#mermaid-1782730558676 .classLabel .box{stroke:none;stroke-width:0;fill:#ECECFF;opacity:0.5;}#mermaid-1782730558676 .classLabel .label{fill:#9370DB;font-size:10px;}#mermaid-1782730558676 .relation{stroke:#333333;stroke-width:1;fill:none;}#mermaid-1782730558676 .dashed-line{stroke-dasharray:3;}#mermaid-1782730558676 .dotted-line{stroke-dasharray:1 2;}#mermaid-1782730558676 [id$="-compositionStart"],#mermaid-1782730558676 .composition{fill:#333333!important;stroke:#333333!important;stroke-width:1;}#mermaid-1782730558676 [id$="-compositionEnd"],#mermaid-1782730558676 .composition{fill:#333333!important;stroke:#333333!important;stroke-width:1;}#mermaid-1782730558676 [id$="-dependencyStart"],#mermaid-1782730558676 .dependency{fill:#333333!important;stroke:#333333!important;stroke-width:1;}#mermaid-1782730558676 [id$="-dependencyEnd"],#mermaid-1782730558676 .dependency{fill:#333333!important;stroke:#333333!important;stroke-width:1;}#mermaid-1782730558676 [id$="-extensionStart"],#mermaid-1782730558676 .extension{fill:transparent!important;stroke:#333333!important;stroke-width:1;}#mermaid-1782730558676 [id$="-extensionEnd"],#mermaid-1782730558676 .extension{fill:transparent!important;stroke:#333333!important;stroke-width:1;}#mermaid-1782730558676 [id$="-aggregationStart"],#mermaid-1782730558676 .aggregation{fill:transparent!important;stroke:#333333!important;stroke-width:1;}#mermaid-1782730558676 [id$="-aggregationEnd"],#mermaid-1782730558676 .aggregation{fill:transparent!important;stroke:#333333!important;stroke-width:1;}#mermaid-1782730558676 [id$="-lollipopStart"],#mermaid-1782730558676 .lollipop{fill:#ECECFF!important;stroke:#333333!important;stroke-width:1;}#mermaid-1782730558676 [id$="-lollipopEnd"],#mermaid-1782730558676 .lollipop{fill:#ECECFF!important;stroke:#333333!important;stroke-width:1;}#mermaid-1782730558676 .edgeTerminals{font-size:11px;line-height:initial;}#mermaid-1782730558676 .classTitleText{text-anchor:middle;font-size:18px;fill:#333;}#mermaid-1782730558676 .edgeLabel[data-look="neo"]{background-color:rgba(232,232,232, 0.8);text-align:center;}#mermaid-1782730558676 .edgeLabel[data-look="neo"] p{background-color:rgba(232,232,232, 0.8);}#mermaid-1782730558676 .edgeLabel[data-look="neo"] rect{opacity:0.5;background-color:rgba(232,232,232, 0.8);fill:rgba(232,232,232, 0.8);}#mermaid-1782730558676 .label-icon{display:inline-block;height:1em;overflow:visible;vertical-align:-0.125em;}#mermaid-1782730558676 .node .label-icon path{fill:currentColor;stroke:revert;stroke-width:revert;}#mermaid-1782730558676 .node .neo-node{stroke:#9370DB;}#mermaid-1782730558676 [data-look="neo"].node rect,#mermaid-1782730558676 [data-look="neo"].cluster rect,#mermaid-1782730558676 [data-look="neo"].node polygon{stroke:#9370DB;filter:drop-shadow(1px 2px 2px rgba(185, 185, 185, 1));}#mermaid-1782730558676 [data-look="neo"].swimlane.cluster rect{filter:none;}#mermaid-1782730558676 [data-look="neo"].node path{stroke:#9370DB;stroke-width:1px;}#mermaid-1782730558676 [data-look="neo"].node .outer-path{filter:drop-shadow(1px 2px 2px rgba(185, 185, 185, 1));}#mermaid-1782730558676 [data-look="neo"].node .neo-line path{stroke:#9370DB;filter:none;}#mermaid-1782730558676 [data-look="neo"].node circle{stroke:#9370DB;filter:drop-shadow(1px 2px 2px rgba(185, 185, 185, 1));}#mermaid-1782730558676 [data-look="neo"].node circle .state-start{fill:#000000;}#mermaid-1782730558676 [data-look="neo"].icon-shape .icon{fill:#9370DB;filter:drop-shadow(1px 2px 2px rgba(185, 185, 185, 1));}#mermaid-1782730558676 [data-look="neo"].icon-shape .icon-neo path{stroke:#9370DB;filter:drop-shadow(1px 2px 2px rgba(185, 185, 185, 1));}#mermaid-1782730558676 :root{--mermaid-font-family:"trebuchet ms",verdana,arial,sans-serif;}</style><g><defs><marker id="mermaid-1782730558676_class-aggregationStart" class="marker aggregation class" refX="18" refY="7" markerWidth="190" markerHeight="240" orient="auto"><path d="M 18,7 L9,13 L1,7 L9,1 Z"></path></marker></defs><defs><marker id="mermaid-1782730558676_class-aggregationEnd" class="marker aggregation class" refX="1" refY="7" markerWidth="20" markerHeight="28" orient="auto"><path d="M 18,7 L9,13 L1,7 L9,1 Z"></path></marker></defs><defs><marker id="mermaid-1782730558676_class-aggregationStart-margin" class="marker aggregation class" refX="15" refY="7" markerWidth="190" markerHeight="240" orient="auto" markerUnits="userSpaceOnUse"><path d="M 18,7 L9,13 L1,7 L9,1 Z" style="stroke-width: 2;"></path></marker></defs><defs><marker id="mermaid-1782730558676_class-aggregationEnd-margin" class="marker aggregation class" refX="1" refY="7" markerWidth="20" markerHeight="28" orient="auto" markerUnits="userSpaceOnUse"><path d="M 18,7 L9,13 L1,7 L9,1 Z" style="stroke-width: 2;"></path></marker></defs><defs><marker id="mermaid-1782730558676_class-extensionStart" class="marker extension class" refX="18" refY="7" markerWidth="20" markerHeight="28" orient="auto" markerUnits="userSpaceOnUse"><path d="M 1,7 L18,13 V 1 Z"></path></marker></defs><defs><marker id="mermaid-1782730558676_class-extensionEnd" class="marker extension class" refX="1" refY="7" markerWidth="20" markerHeight="28" orient="auto"><path d="M 1,1 V 13 L18,7 Z"></path></marker></defs><marker id="mermaid-1782730558676_class-extensionStart-margin" class="marker extension class" refX="18" refY="7" markerWidth="20" markerHeight="28" orient="auto" markerUnits="userSpaceOnUse" viewBox="0 0 20 14"><polygon points="10,7 18,13 18,1" style="stroke-width: 2; stroke-dasharray: 0;"></polygon></marker><defs><marker id="mermaid-1782730558676_class-extensionEnd-margin" class="marker extension class" refX="9" refY="7" markerWidth="20" markerHeight="28" orient="auto" markerUnits="userSpaceOnUse" viewBox="0 0 20 14"><polygon points="10,1 10,13 18,7" style="stroke-width: 2; stroke-dasharray: 0;"></polygon></marker></defs><defs><marker id="mermaid-1782730558676_class-compositionStart" class="marker composition class" refX="18" refY="7" markerWidth="190" markerHeight="240" orient="auto"><path d="M 18,7 L9,13 L1,7 L9,1 Z"></path></marker></defs><defs><marker id="mermaid-1782730558676_class-compositionEnd" class="marker composition class" refX="1" refY="7" markerWidth="20" markerHeight="28" orient="auto"><path d="M 18,7 L9,13 L1,7 L9,1 Z"></path></marker></defs><defs><marker id="mermaid-1782730558676_class-compositionStart-margin" class="marker composition class" refX="15" refY="7" markerWidth="190" markerHeight="240" orient="auto" markerUnits="userSpaceOnUse"><path viewBox="0 0 15 15" d="M 18,7 L9,13 L1,7 L9,1 Z" style="stroke-width: 0;"></path></marker></defs><defs><marker id="mermaid-1782730558676_class-compositionEnd-margin" class="marker composition class" refX="3.5" refY="7" markerWidth="20" markerHeight="28" orient="auto" markerUnits="userSpaceOnUse"><path d="M 18,7 L9,13 L1,7 L9,1 Z" style="stroke-width: 0;"></path></marker></defs><defs><marker id="mermaid-1782730558676_class-dependencyStart" class="marker dependency class" refX="6" refY="7" markerWidth="190" markerHeight="240" orient="auto"><path d="M 5,7 L9,13 L1,7 L9,1 Z"></path></marker></defs><defs><marker id="mermaid-1782730558676_class-dependencyEnd" class="marker dependency class" refX="13" refY="7" markerWidth="20" markerHeight="28" orient="auto"><path d="M 18,7 L9,13 L14,7 L9,1 Z"></path></marker></defs><defs><marker id="mermaid-1782730558676_class-dependencyStart-margin" class="marker dependency class" refX="4" refY="7" markerWidth="190" markerHeight="240" orient="auto" markerUnits="userSpaceOnUse"><path d="M 5,7 L9,13 L1,7 L9,1 Z" style="stroke-width: 0;"></path></marker></defs><defs><marker id="mermaid-1782730558676_class-dependencyEnd-margin" class="marker dependency class" refX="16" refY="7" markerWidth="20" markerHeight="28" orient="auto" markerUnits="userSpaceOnUse"><path d="M 18,7 L9,13 L14,7 L9,1 Z" style="stroke-width: 0;"></path></marker></defs><defs><marker id="mermaid-1782730558676_class-lollipopStart" class="marker lollipop class" refX="13" refY="7" markerWidth="190" markerHeight="240" orient="auto"><circle fill="transparent" cx="7" cy="7" r="6"></circle></marker></defs><defs><marker id="mermaid-1782730558676_class-lollipopEnd" class="marker lollipop class" refX="1" refY="7" markerWidth="190" markerHeight="240" orient="auto"><circle fill="transparent" cx="7" cy="7" r="6"></circle></marker></defs><defs><marker id="mermaid-1782730558676_class-lollipopStart-margin" class="marker lollipop class" refX="13" refY="7" markerWidth="190" markerHeight="240" orient="auto" markerUnits="userSpaceOnUse"><circle fill="transparent" cx="7" cy="7" r="6" stroke-width="2"></circle></marker></defs><defs><marker id="mermaid-1782730558676_class-lollipopEnd-margin" class="marker lollipop class" refX="1" refY="7" markerWidth="190" markerHeight="240" orient="auto" markerUnits="userSpaceOnUse"><circle fill="transparent" cx="7" cy="7" r="6" stroke-width="2"></circle></marker></defs><g class="root"><g class="clusters"></g><g class="edgePaths"><path d="M321.422,187.802L285.174,207.418C248.926,227.034,176.43,266.267,140.182,290.967C103.934,315.667,103.934,325.833,103.934,330.917L103.934,336" id="mermaid-1782730558676-id_Server_Store_1" class=" edge-thickness-normal edge-pattern-solid relation" style=";;;" data-edge="true" data-et="edge" data-id="id_Server_Store_1" data-points="W3sieCI6MzIxLjQyMTg3NSwieSI6MTg3LjgwMTU2MDc3OTI1MDM3fSx7IngiOjEwMy45MzM1OTM3NSwieSI6MzA1LjV9LHsieCI6MTAzLjkzMzU5Mzc1LCJ5IjozNDJ9XQ==" data-look="classic" marker-end="url(#mermaid-1782730558676_class-dependencyEnd)"></path><path d="M336.129,269L332.568,275.083C329.006,281.167,321.884,293.333,318.323,311.083C314.762,328.833,314.762,352.167,314.762,363.833L314.762,375.5" id="mermaid-1782730558676-id_Server_Hub_2" class=" edge-thickness-normal edge-pattern-solid relation" style=";;;" data-edge="true" data-et="edge" data-id="id_Server_Hub_2" data-points="W3sieCI6MzM2LjEyODgwMDk5MTc2NjQ3LCJ5IjoyNjl9LHsieCI6MzE0Ljc2MTcxODc1LCJ5IjozMDUuNX0seyJ4IjozMTQuNzYxNzE4NzUsInkiOjM4MS41fV0=" data-look="classic" marker-end="url(#mermaid-1782730558676_class-dependencyEnd)"></path><path d="M488.918,269L492.479,275.083C496.04,281.167,503.163,293.333,506.724,313.667C510.285,334,510.285,362.5,510.285,376.75L510.285,391" id="mermaid-1782730558676-id_Server_Client_3" class=" edge-thickness-normal edge-pattern-solid relation" style=";;;" data-edge="true" data-et="edge" data-id="id_Server_Client_3" data-points="W3sieCI6NDg4LjkxODA3NDAwODIzMzUzLCJ5IjoyNjl9LHsieCI6NTEwLjI4NTE1NjI1LCJ5IjozMDUuNX0seyJ4Ijo1MTAuMjg1MTU2MjUsInkiOjM5N31d" data-look="classic" marker-end="url(#mermaid-1782730558676_class-dependencyEnd)"></path><path d="M503.625,186.156L541.649,206.047C579.673,225.937,655.72,265.719,693.744,295.943C731.768,326.167,731.768,346.833,731.768,357.167L731.768,367.5" id="mermaid-1782730558676-id_Server_Claims_4" class=" edge-thickness-normal edge-pattern-dashed relation" style=";;;" data-edge="true" data-et="edge" data-id="id_Server_Claims_4" data-points="W3sieCI6NTAzLjYyNSwieSI6MTg2LjE1NjE5NDc0NzExMzg2fSx7IngiOjczMS43Njc1NzgxMjUsInkiOjMwNS41fSx7IngiOjczMS43Njc1NzgxMjUsInkiOjM3My41fV0=" data-look="classic" marker-end="url(#mermaid-1782730558676_class-dependencyEnd)"></path></g><g class="edgeLabels"><g class="edgeLabel"><g class="label" data-id="id_Server_Store_1" transform="translate(0, 0)"><text y="-10.1" text-anchor="middle"><tspan class="text-outer-tspan row" x="0" y="-0.1em" dy="1.1em" text-anchor="middle"></tspan></text></g></g><g><rect class="background" style="stroke: none"></rect></g><g class="edgeLabel"><g class="label" data-id="id_Server_Hub_2" transform="translate(0, 0)"><text y="-10.1" text-anchor="middle"><tspan class="text-outer-tspan row" x="0" y="-0.1em" dy="1.1em" text-anchor="middle"></tspan></text></g></g><g><rect class="background" style="stroke: none"></rect></g><g class="edgeLabel"><g class="label" data-id="id_Server_Client_3" transform="translate(0, 0)"><text y="-10.1" text-anchor="middle"><tspan class="text-outer-tspan row" x="0" y="-0.1em" dy="1.1em" text-anchor="middle"></tspan></text></g></g><g><rect class="background" style="stroke: none"></rect></g><g class="edgeLabel" transform="translate(731.767578125, 305.5)"><g class="label" data-id="id_Server_Claims_4" transform="translate(-0.3515625, -10.5)"><g><rect class="background" style="" x="-58.3671875" y="-1" width="117.4375" height="23"></rect><text y="-10.1" text-anchor="middle" style=""><tspan class="text-outer-tspan row" x="0" y="-0.1em" dy="1.1em" text-anchor="middle"><tspan font-style="normal" class="text-inner-tspan" font-weight="normal">sign/verify</tspan><tspan font-style="normal" class="text-inner-tspan" font-weight="normal"> JWT</tspan></tspan></text></g></g></g></g><g class="nodes"><g class="node default " id="mermaid-1782730558676-classId-Server-0" data-look="classic" transform="translate(412.5234375, 138.5)"><g class="basic label-container outer-path"><path d="M-91.1015625 -130.5 L91.1015625 -130.5 L91.1015625 130.5 L-91.1015625 130.5" stroke="none" stroke-width="0" fill="#ECECFF" style=""></path><path d="M-91.1015625 -130.5 C-43.092940934554356 -130.5, 4.915680630891288 -130.5, 91.1015625 -130.5 M-91.1015625 -130.5 C-49.281654416436844 -130.5, -7.4617463328736875 -130.5, 91.1015625 -130.5 M91.1015625 -130.5 C91.1015625 -54.81493894499306, 91.1015625 20.87012211001388, 91.1015625 130.5 M91.1015625 -130.5 C91.1015625 -61.2353075343714, 91.1015625 8.029384931257198, 91.1015625 130.5 M91.1015625 130.5 C50.01210534975888 130.5, 8.922648199517766 130.5, -91.1015625 130.5 M91.1015625 130.5 C53.52441966044107 130.5, 15.947276820882138 130.5, -91.1015625 130.5 M-91.1015625 130.5 C-91.1015625 57.252740512384165, -91.1015625 -15.99451897523167, -91.1015625 -130.5 M-91.1015625 130.5 C-91.1015625 36.376412130516655, -91.1015625 -57.74717573896669, -91.1015625 -130.5" stroke="#9370DB" stroke-width="1.3" fill="none" stroke-dasharray="0 0" style=""></path></g><g class="annotation-group text" transform="translate(0, -110.5)"></g><g class="label-group text" transform="translate(-24.921875, -110.5)"><g class="label" style="font-weight: bolder" transform="translate(0,-9.5)"><g><rect class="background" style="stroke: none"></rect><text y="-10.1" style=""><tspan class="text-outer-tspan row" x="0" y="-0.1em" dy="1.1em" font-weight=""><tspan font-style="normal" class="text-inner-tspan" font-weight="">Server</tspan></tspan></text></g></g></g><g class="members-group text" transform="translate(-79.1015625, -67.5)"><g class="label" style="" transform="translate(0,-9.5)"><g><rect class="background" style="stroke: none"></rect><text y="-10.1" style=""><tspan class="text-outer-tspan row" x="0" y="-0.1em" dy="1.1em"><tspan font-style="normal" class="text-inner-tspan" font-weight="normal">+Config</tspan><tspan font-style="normal" class="text-inner-tspan" font-weight="normal"> cfg</tspan></tspan></text></g></g><g class="label" style="" transform="translate(0,12.5)"><g><rect class="background" style="stroke: none"></rect><text y="-10.1" style=""><tspan class="text-outer-tspan row" x="0" y="-0.1em" dy="1.1em"><tspan font-style="normal" class="text-inner-tspan" font-weight="normal">+Store</tspan><tspan font-style="normal" class="text-inner-tspan" font-weight="normal"> store</tspan></tspan></text></g></g><g class="label" style="" transform="translate(0,34.5)"><g><rect class="background" style="stroke: none"></rect><text y="-10.1" style=""><tspan class="text-outer-tspan row" x="0" y="-0.1em" dy="1.1em"><tspan font-style="normal" class="text-inner-tspan" font-weight="normal">+Client</tspan><tspan font-style="normal" class="text-inner-tspan" font-weight="normal"> ai</tspan></tspan></text></g></g><g class="label" style="" transform="translate(0,56.5)"><g><rect class="background" style="stroke: none"></rect><text y="-10.1" style=""><tspan class="text-outer-tspan row" x="0" y="-0.1em" dy="1.1em"><tspan font-style="normal" class="text-inner-tspan" font-weight="normal">+Hub</tspan><tspan font-style="normal" class="text-inner-tspan" font-weight="normal"> hub</tspan></tspan></text></g></g></g><g class="methods-group text" transform="translate(-79.1015625, 41.5)"><g class="label" style="" transform="translate(0,-9.5)"><g><rect class="background" style="stroke: none"></rect><text y="-10.1" style=""><tspan class="text-outer-tspan row" x="0" y="-0.1em" dy="1.1em"><tspan font-style="normal" class="text-inner-tspan" font-weight="normal">+routes()</tspan></tspan></text></g></g><g class="label" style="" transform="translate(0,12.5)"><g><rect class="background" style="stroke: none"></rect><text y="-10.1" style=""><tspan class="text-outer-tspan row" x="0" y="-0.1em" dy="1.1em"><tspan font-style="normal" class="text-inner-tspan" font-weight="normal">+handleLogin()</tspan></tspan></text></g></g><g class="label" style="" transform="translate(0,34.5)"><g><rect class="background" style="stroke: none"></rect><text y="-10.1" style=""><tspan class="text-outer-tspan row" x="0" y="-0.1em" dy="1.1em"><tspan font-style="normal" class="text-inner-tspan" font-weight="normal">+handleOrders()</tspan></tspan></text></g></g><g class="label" style="" transform="translate(0,56.5)"><g><rect class="background" style="stroke: none"></rect><text y="-10.1" style=""><tspan class="text-outer-tspan row" x="0" y="-0.1em" dy="1.1em"><tspan font-style="normal" class="text-inner-tspan" font-weight="normal">+handleOptimize()</tspan></tspan></text></g></g></g><g class="divider" style=""><path d="M-91.1015625 -87.5 C-40.74573377095399 -87.49972362807318, 9.61009495809202 -87.49944725614635, 91.1015625 -87.499 M-91.1015625 -87.5 C-48.24992382527488 -87.49976481392032, -5.3982851505497536 -87.49952962784063, 91.1015625 -87.499" stroke="#9370DB" stroke-width="1.3" fill="none" stroke-dasharray="0 0" style=""></path></g><g class="divider" style=""><path d="M-91.1015625 21.5 C-44.56227837969571 21.50025542527945, 1.9770057406085755 21.500510850558907, 91.1015625 21.501 M-91.1015625 21.5 C-22.13201158918342 21.500378531108677, 46.83753932163316 21.500757062217357, 91.1015625 21.501" stroke="#9370DB" stroke-width="1.3" fill="none" stroke-dasharray="0 0" style=""></path></g></g><g class="node default " id="mermaid-1782730558676-classId-Store-1" data-look="classic" transform="translate(103.93359375, 461.5)"><g class="basic label-container outer-path"><path d="M-95.93359375 -119.5 L95.93359375 -119.5 L95.93359375 119.5 L-95.93359375 119.5" stroke="none" stroke-width="0" fill="#ECECFF" style=""></path><path d="M-95.93359375 -119.5 C-34.923115819771645 -119.5, 26.08736211045671 -119.5, 95.93359375 -119.5 M-95.93359375 -119.5 C-31.378879679102624 -119.5, 33.17583439179475 -119.5, 95.93359375 -119.5 M95.93359375 -119.5 C95.93359375 -54.747785320468296, 95.93359375 10.004429359063408, 95.93359375 119.5 M95.93359375 -119.5 C95.93359375 -59.40540868796819, 95.93359375 0.6891826240636192, 95.93359375 119.5 M95.93359375 119.5 C47.95239134179733 119.5, -0.028811066405339147 119.5, -95.93359375 119.5 M95.93359375 119.5 C34.65895684287092 119.5, -26.615680064258157 119.5, -95.93359375 119.5 M-95.93359375 119.5 C-95.93359375 70.1538452528802, -95.93359375 20.807690505760405, -95.93359375 -119.5 M-95.93359375 119.5 C-95.93359375 60.45040800318437, -95.93359375 1.4008160063687427, -95.93359375 -119.5" stroke="#9370DB" stroke-width="1.3" fill="none" stroke-dasharray="0 0" style=""></path></g><g class="annotation-group text" transform="translate(0, -99.5)"></g><g class="label-group text" transform="translate(-19.8046875, -99.5)"><g class="label" style="font-weight: bolder" transform="translate(0,-9.5)"><g><rect class="background" style="stroke: none"></rect><text y="-10.1" style=""><tspan class="text-outer-tspan row" x="0" y="-0.1em" dy="1.1em" font-weight=""><tspan font-style="normal" class="text-inner-tspan" font-weight="">Store</tspan></tspan></text></g></g></g><g class="members-group text" transform="translate(-83.93359375, -56.5)"><g class="label" style="" transform="translate(0,-9.5)"><g><rect class="background" style="stroke: none"></rect><text y="-10.1" style=""><tspan class="text-outer-tspan row" x="0" y="-0.1em" dy="1.1em"><tspan font-style="normal" class="text-inner-tspan" font-weight="normal">+DB</tspan><tspan font-style="normal" class="text-inner-tspan" font-weight="normal"> db</tspan></tspan></text></g></g></g><g class="methods-group text" transform="translate(-83.93359375, -13.5)"><g class="label" style="" transform="translate(0,-9.5)"><g><rect class="background" style="stroke: none"></rect><text y="-10.1" style=""><tspan class="text-outer-tspan row" x="0" y="-0.1em" dy="1.1em"><tspan font-style="normal" class="text-inner-tspan" font-weight="normal">+GetUserByEmail()</tspan></tspan></text></g></g><g class="label" style="" transform="translate(0,12.5)"><g><rect class="background" style="stroke: none"></rect><text y="-10.1" style=""><tspan class="text-outer-tspan row" x="0" y="-0.1em" dy="1.1em"><tspan font-style="normal" class="text-inner-tspan" font-weight="normal">+ListOrders()</tspan></tspan></text></g></g><g class="label" style="" transform="translate(0,34.5)"><g><rect class="background" style="stroke: none"></rect><text y="-10.1" style=""><tspan class="text-outer-tspan row" x="0" y="-0.1em" dy="1.1em"><tspan font-style="normal" class="text-inner-tspan" font-weight="normal">+CreateOrder()</tspan></tspan></text></g></g><g class="label" style="" transform="translate(0,56.5)"><g><rect class="background" style="stroke: none"></rect><text y="-10.1" style=""><tspan class="text-outer-tspan row" x="0" y="-0.1em" dy="1.1em"><tspan font-style="normal" class="text-inner-tspan" font-weight="normal">+Analytics()</tspan></tspan></text></g></g><g class="label" style="" transform="translate(0,78.5)"><g><rect class="background" style="stroke: none"></rect><text y="-10.1" style=""><tspan class="text-outer-tspan row" x="0" y="-0.1em" dy="1.1em"><tspan font-style="normal" class="text-inner-tspan" font-weight="normal">+Fleet()</tspan></tspan></text></g></g><g class="label" style="" transform="translate(0,100.5)"><g><rect class="background" style="stroke: none"></rect><text y="-10.1" style=""><tspan class="text-outer-tspan row" x="0" y="-0.1em" dy="1.1em"><tspan font-style="normal" class="text-inner-tspan" font-weight="normal">+PersistAssignment()</tspan></tspan></text></g></g></g><g class="divider" style=""><path d="M-95.93359375 -76.5 C-37.68484680205621 -76.49969641110756, 20.563900145887587 -76.49939282221513, 95.93359375 -76.499 M-95.93359375 -76.5 C-28.140014120732587 -76.4996466640257, 39.653565508534825 -76.49929332805142, 95.93359375 -76.499" stroke="#9370DB" stroke-width="1.3" fill="none" stroke-dasharray="0 0" style=""></path></g><g class="divider" style=""><path d="M-95.93359375 -33.5 C-34.18575552137789 -33.499678174058666, 27.562082707244215 -33.49935634811733, 95.93359375 -33.499 M-95.93359375 -33.5 C-51.15765133832522 -33.499766630537536, -6.381708926650447 -33.49953326107507, 95.93359375 -33.499" stroke="#9370DB" stroke-width="1.3" fill="none" stroke-dasharray="0 0" style=""></path></g></g><g class="node default " id="mermaid-1782730558676-classId-Hub-2" data-look="classic" transform="translate(314.76171875, 461.5)"><g class="basic label-container outer-path"><path d="M-64.89453125 -80 L64.89453125 -80 L64.89453125 80 L-64.89453125 80" stroke="none" stroke-width="0" fill="#ECECFF" style=""></path><path d="M-64.89453125 -80 C-24.917291965004246 -80, 15.059947319991508 -80, 64.89453125 -80 M-64.89453125 -80 C-23.5732331450726 -80, 17.7480649598548 -80, 64.89453125 -80 M64.89453125 -80 C64.89453125 -17.806558134233654, 64.89453125 44.38688373153269, 64.89453125 80 M64.89453125 -80 C64.89453125 -31.907740251953804, 64.89453125 16.184519496092392, 64.89453125 80 M64.89453125 80 C19.201178897670843 80, -26.492173454658314 80, -64.89453125 80 M64.89453125 80 C31.72287676020901 80, -1.4487777295819768 80, -64.89453125 80 M-64.89453125 80 C-64.89453125 30.371536171103592, -64.89453125 -19.256927657792815, -64.89453125 -80 M-64.89453125 80 C-64.89453125 20.322488893615017, -64.89453125 -39.35502221276997, -64.89453125 -80" stroke="#9370DB" stroke-width="1.3" fill="none" stroke-dasharray="0 0" style=""></path></g><g class="annotation-group text" transform="translate(0, -60)"></g><g class="label-group text" transform="translate(-15.1953125, -60)"><g class="label" style="font-weight: bolder" transform="translate(0,-9.5)"><g><rect class="background" style="stroke: none"></rect><text y="-10.1" style=""><tspan class="text-outer-tspan row" x="0" y="-0.1em" dy="1.1em" font-weight=""><tspan font-style="normal" class="text-inner-tspan" font-weight="">Hub</tspan></tspan></text></g></g></g><g class="members-group text" transform="translate(-52.89453125, -17)"></g><g class="methods-group text" transform="translate(-52.89453125, 13)"><g class="label" style="" transform="translate(0,-9.5)"><g><rect class="background" style="stroke: none"></rect><text y="-10.1" style=""><tspan class="text-outer-tspan row" x="0" y="-0.1em" dy="1.1em"><tspan font-style="normal" class="text-inner-tspan" font-weight="normal">+Add()</tspan></tspan></text></g></g><g class="label" style="" transform="translate(0,12.5)"><g><rect class="background" style="stroke: none"></rect><text y="-10.1" style=""><tspan class="text-outer-tspan row" x="0" y="-0.1em" dy="1.1em"><tspan font-style="normal" class="text-inner-tspan" font-weight="normal">+Broadcast()</tspan></tspan></text></g></g><g class="label" style="" transform="translate(0,34.5)"><g><rect class="background" style="stroke: none"></rect><text y="-10.1" style=""><tspan class="text-outer-tspan row" x="0" y="-0.1em" dy="1.1em"><tspan font-style="normal" class="text-inner-tspan" font-weight="normal">+Run()</tspan></tspan></text></g></g></g><g class="divider" style=""><path d="M-64.89453125 -37 C-22.85703843970328 -36.999676109126604, 19.180454370593438 -36.99935221825321, 64.89453125 -36.999 M-64.89453125 -37 C-32.63829195289416 -36.99975147182146, -0.38205265578831415 -36.99950294364293, 64.89453125 -36.999" stroke="#9370DB" stroke-width="1.3" fill="none" stroke-dasharray="0 0" style=""></path></g><g class="divider" style=""><path d="M-64.89453125 -13 C-29.051721048543747 -12.999723837975935, 6.791089152912505 -12.99944767595187, 64.89453125 -12.999 M-64.89453125 -13 C-27.43083201896549 -12.999711349334763, 10.032867212069021 -12.999422698669527, 64.89453125 -12.999" stroke="#9370DB" stroke-width="1.3" fill="none" stroke-dasharray="0 0" style=""></path></g></g><g class="node default " id="mermaid-1782730558676-classId-Client-3" data-look="classic" transform="translate(510.28515625, 461.5)"><g class="basic label-container outer-path"><path d="M-80.62890625 -64.5 L80.62890625 -64.5 L80.62890625 64.5 L-80.62890625 64.5" stroke="none" stroke-width="0" fill="#ECECFF" style=""></path><path d="M-80.62890625 -64.5 C-19.55166553020039 -64.5, 41.52557518959922 -64.5, 80.62890625 -64.5 M-80.62890625 -64.5 C-19.487918216883116 -64.5, 41.65306981623377 -64.5, 80.62890625 -64.5 M80.62890625 -64.5 C80.62890625 -38.2127159437429, 80.62890625 -11.9254318874858, 80.62890625 64.5 M80.62890625 -64.5 C80.62890625 -18.167320029026655, 80.62890625 28.16535994194669, 80.62890625 64.5 M80.62890625 64.5 C39.49030605210633 64.5, -1.6482941457873466 64.5, -80.62890625 64.5 M80.62890625 64.5 C30.076141405853527 64.5, -20.476623438292947 64.5, -80.62890625 64.5 M-80.62890625 64.5 C-80.62890625 14.37090253420439, -80.62890625 -35.75819493159122, -80.62890625 -64.5 M-80.62890625 64.5 C-80.62890625 25.438493262665766, -80.62890625 -13.623013474668468, -80.62890625 -64.5" stroke="#9370DB" stroke-width="1.3" fill="none" stroke-dasharray="0 0" style=""></path></g><g class="annotation-group text" transform="translate(0, -44.5)"></g><g class="label-group text" transform="translate(-22.4609375, -44.5)"><g class="label" style="font-weight: bolder" transform="translate(0,-9.5)"><g><rect class="background" style="stroke: none"></rect><text y="-10.1" style=""><tspan class="text-outer-tspan row" x="0" y="-0.1em" dy="1.1em" font-weight=""><tspan font-style="normal" class="text-inner-tspan" font-weight="">Client</tspan></tspan></text></g></g></g><g class="members-group text" transform="translate(-68.62890625, -1.5)"><g class="label" style="" transform="translate(0,-9.5)"><g><rect class="background" style="stroke: none"></rect><text y="-10.1" style=""><tspan class="text-outer-tspan row" x="0" y="-0.1em" dy="1.1em"><tspan font-style="normal" class="text-inner-tspan" font-weight="normal">+string</tspan><tspan font-style="normal" class="text-inner-tspan" font-weight="normal"> baseURL</tspan></tspan></text></g></g></g><g class="methods-group text" transform="translate(-68.62890625, 41.5)"><g class="label" style="" transform="translate(0,-9.5)"><g><rect class="background" style="stroke: none"></rect><text y="-10.1" style=""><tspan class="text-outer-tspan row" x="0" y="-0.1em" dy="1.1em"><tspan font-style="normal" class="text-inner-tspan" font-weight="normal">+Optimize()</tspan></tspan></text></g></g></g><g class="divider" style=""><path d="M-80.62890625 -21.5 C-16.71124880266612 -21.499603630630624, 47.20640864466776 -21.49920726126125, 80.62890625 -21.499 M-80.62890625 -21.5 C-22.22146289376778 -21.499637800845424, 36.18598046246444 -21.499275601690847, 80.62890625 -21.499" stroke="#9370DB" stroke-width="1.3" fill="none" stroke-dasharray="0 0" style=""></path></g><g class="divider" style=""><path d="M-80.62890625 21.5 C-38.18180561356667 21.50026322508025, 4.265295022866667 21.500526450160503, 80.62890625 21.501 M-80.62890625 21.5 C-27.74194268487365 21.500327965279606, 25.1450208802527 21.500655930559212, 80.62890625 21.501" stroke="#9370DB" stroke-width="1.3" fill="none" stroke-dasharray="0 0" style=""></path></g></g><g class="node default " id="mermaid-1782730558676-classId-Claims-4" data-look="classic" transform="translate(731.767578125, 461.5)"><g class="basic label-container outer-path"><path d="M-90.853515625 -88 L90.853515625 -88 L90.853515625 88 L-90.853515625 88" stroke="none" stroke-width="0" fill="#ECECFF" style=""></path><path d="M-90.853515625 -88 C-30.88151000850612 -88, 29.090495607987762 -88, 90.853515625 -88 M-90.853515625 -88 C-43.38898836918003 -88, 4.075538886639933 -88, 90.853515625 -88 M90.853515625 -88 C90.853515625 -41.90230609633462, 90.853515625 4.195387807330761, 90.853515625 88 M90.853515625 -88 C90.853515625 -48.39079532849539, 90.853515625 -8.781590656990787, 90.853515625 88 M90.853515625 88 C52.82920462821101 88, 14.804893631422019 88, -90.853515625 88 M90.853515625 88 C48.947969980486306 88, 7.042424335972612 88, -90.853515625 88 M-90.853515625 88 C-90.853515625 20.82822151983605, -90.853515625 -46.3435569603279, -90.853515625 -88 M-90.853515625 88 C-90.853515625 30.152904881874875, -90.853515625 -27.69419023625025, -90.853515625 -88" stroke="#9370DB" stroke-width="1.3" fill="none" stroke-dasharray="0 0" style=""></path></g><g class="annotation-group text" transform="translate(0, -68)"></g><g class="label-group text" transform="translate(-24.27734375, -68)"><g class="label" style="font-weight: bolder" transform="translate(0,-9.5)"><g><rect class="background" style="stroke: none"></rect><text y="-10.1" style=""><tspan class="text-outer-tspan row" x="0" y="-0.1em" dy="1.1em" font-weight=""><tspan font-style="normal" class="text-inner-tspan" font-weight="">Claims</tspan></tspan></text></g></g></g><g class="members-group text" transform="translate(-78.853515625, -25)"><g class="label" style="" transform="translate(0,-9.5)"><g><rect class="background" style="stroke: none"></rect><text y="-10.1" style=""><tspan class="text-outer-tspan row" x="0" y="-0.1em" dy="1.1em"><tspan font-style="normal" class="text-inner-tspan" font-weight="normal">+string</tspan><tspan font-style="normal" class="text-inner-tspan" font-weight="normal"> Sub</tspan></tspan></text></g></g><g class="label" style="" transform="translate(0,12.5)"><g><rect class="background" style="stroke: none"></rect><text y="-10.1" style=""><tspan class="text-outer-tspan row" x="0" y="-0.1em" dy="1.1em"><tspan font-style="normal" class="text-inner-tspan" font-weight="normal">+string</tspan><tspan font-style="normal" class="text-inner-tspan" font-weight="normal"> CompanyID</tspan></tspan></text></g></g><g class="label" style="" transform="translate(0,34.5)"><g><rect class="background" style="stroke: none"></rect><text y="-10.1" style=""><tspan class="text-outer-tspan row" x="0" y="-0.1em" dy="1.1em"><tspan font-style="normal" class="text-inner-tspan" font-weight="normal">+string</tspan><tspan font-style="normal" class="text-inner-tspan" font-weight="normal"> Role</tspan></tspan></text></g></g><g class="label" style="" transform="translate(0,56.5)"><g><rect class="background" style="stroke: none"></rect><text y="-10.1" style=""><tspan class="text-outer-tspan row" x="0" y="-0.1em" dy="1.1em"><tspan font-style="normal" class="text-inner-tspan" font-weight="normal">+int</tspan><tspan font-style="normal" class="text-inner-tspan" font-weight="normal"> Exp</tspan></tspan></text></g></g></g><g class="methods-group text" transform="translate(-78.853515625, 84)"></g><g class="divider" style=""><path d="M-90.853515625 -45 C-31.74255841917772 -44.999674690864744, 27.368398786644562 -44.99934938172949, 90.853515625 -44.999 M-90.853515625 -45 C-19.32219251819376 -44.99960633706569, 52.20913058861248 -44.99921267413138, 90.853515625 -44.999" stroke="#9370DB" stroke-width="1.3" fill="none" stroke-dasharray="0 0" style=""></path></g><g class="divider" style=""><path d="M-90.853515625 64 C-40.7553032910559 64.00027570871633, 9.342909042888195 64.00055141743266, 90.853515625 64.001 M-90.853515625 64 C-28.515302126905922 64.00034306990253, 33.822911371188155 64.00068613980504, 90.853515625 64.001" stroke="#9370DB" stroke-width="1.3" fill="none" stroke-dasharray="0 0" style=""></path></g></g></g></g></g><defs><filter id="mermaid-1782730558676-drop-shadow" height="130%" width="130%"><feDropShadow dx="4" dy="4" stdDeviation="0" flood-opacity="0.06" flood-color="#000000"></feDropShadow></filter></defs><defs><filter id="mermaid-1782730558676-drop-shadow-small" height="150%" width="150%"><feDropShadow dx="2" dy="2" stdDeviation="0" flood-opacity="0.06" flood-color="#000000"></feDropShadow></filter></defs></svg>