<?xml version="1.0" encoding="UTF-8"?>
<svg id="mermaid-1782730558743" width="693.0390625" xmlns="http://www.w3.org/2000/svg" xmlns:xlink="http://www.w3.org/1999/xlink" class="classDiagram" style="max-width: 693.0390625px;" viewBox="0 0 693.0390625 754" role="graphics-document document" aria-roledescription="class" height="754"><rect x="0" y="0" width="693.0390625" height="754" fill="#ffffff"></rect><style>#mermaid-1782730558743{font-family:"trebuchet ms",verdana,arial,sans-serif;font-size:16px;fill:#333;}@keyframes edge-animation-frame{from{stroke-dashoffset:0;}}@keyframes dash{to{stroke-dashoffset:0;}}#mermaid-1782730558743 .edge-animation-slow{stroke-dasharray:9,5!important;stroke-dashoffset:900;animation:dash 50s linear infinite;stroke-linecap:round;}#mermaid-1782730558743 .edge-animation-fast{stroke-dasharray:9,5!important;stroke-dashoffset:900;animation:dash 20s linear infinite;stroke-linecap:round;}#mermaid-1782730558743 .error-icon{fill:#552222;}#mermaid-1782730558743 .error-text{fill:#552222;stroke:#552222;}#mermaid-1782730558743 .edge-thickness-normal{stroke-width:1px;}#mermaid-1782730558743 .edge-thickness-thick{stroke-width:3.5px;}#mermaid-1782730558743 .edge-pattern-solid{stroke-dasharray:0;}#mermaid-1782730558743 .edge-thickness-invisible{stroke-width:0;fill:none;}#mermaid-1782730558743 .edge-pattern-dashed{stroke-dasharray:3;}#mermaid-1782730558743 .edge-pattern-dotted{stroke-dasharray:2;}#mermaid-1782730558743 .marker{fill:#333333;stroke:#333333;}#mermaid-1782730558743 .marker.cross{stroke:#333333;}#mermaid-1782730558743 svg{font-family:"trebuchet ms",verdana,arial,sans-serif;font-size:16px;}#mermaid-1782730558743 p{margin:0;}#mermaid-1782730558743 g.classGroup text{fill:#9370DB;stroke:none;font-family:"trebuchet ms",verdana,arial,sans-serif;font-size:10px;}#mermaid-1782730558743 g.classGroup text .title{font-weight:bolder;}#mermaid-1782730558743 .cluster-label text{fill:#333;}#mermaid-1782730558743 .cluster-label span{color:#333;}#mermaid-1782730558743 .cluster-label span p{background-color:transparent;}#mermaid-1782730558743 .cluster rect{fill:#ffffde;stroke:#aaaa33;stroke-width:1px;}#mermaid-1782730558743 .cluster text{fill:#333;}#mermaid-1782730558743 .cluster span{color:#333;}#mermaid-1782730558743 .nodeLabel,#mermaid-1782730558743 .edgeLabel{color:#131300;}#mermaid-1782730558743 .noteLabel .nodeLabel,#mermaid-1782730558743 .noteLabel .edgeLabel{color:black;}#mermaid-1782730558743 .edgeLabel .label rect{fill:#ECECFF;}#mermaid-1782730558743 .label text{fill:#131300;}#mermaid-1782730558743 .labelBkg{background:#ECECFF;}#mermaid-1782730558743 .edgeLabel .label span{background:#ECECFF;}#mermaid-1782730558743 .classTitle{font-weight:bolder;}#mermaid-1782730558743 .node rect,#mermaid-1782730558743 .node circle,#mermaid-1782730558743 .node ellipse,#mermaid-1782730558743 .node polygon,#mermaid-1782730558743 .node path{fill:#ECECFF;stroke:#9370DB;stroke-width:1;}#mermaid-1782730558743 .divider{stroke:#9370DB;stroke-width:1;}#mermaid-1782730558743 g.clickable{cursor:pointer;}#mermaid-1782730558743 g.classGroup rect{fill:#ECECFF;stroke:#9370DB;}#mermaid-1782730558743 g.classGroup line{stroke:#9370DB;stroke-width:1;}#mermaid-1782730558743 .classLabel .box{stroke:none;stroke-width:0;fill:#ECECFF;opacity:0.5;}#mermaid-1782730558743 .classLabel .label{fill:#9370DB;font-size:10px;}#mermaid-1782730558743 .relation{stroke:#333333;stroke-width:1;fill:none;}#mermaid-1782730558743 .dashed-line{stroke-dasharray:3;}#mermaid-1782730558743 .dotted-line{stroke-dasharray:1 2;}#mermaid-1782730558743 [id$="-compositionStart"],#mermaid-1782730558743 .composition{fill:#333333!important;stroke:#333333!important;stroke-width:1;}#mermaid-1782730558743 [id$="-compositionEnd"],#mermaid-1782730558743 .composition{fill:#333333!important;stroke:#333333!important;stroke-width:1;}#mermaid-1782730558743 [id$="-dependencyStart"],#mermaid-1782730558743 .dependency{fill:#333333!important;stroke:#333333!important;stroke-width:1;}#mermaid-1782730558743 [id$="-dependencyEnd"],#mermaid-1782730558743 .dependency{fill:#333333!important;stroke:#333333!important;stroke-width:1;}#mermaid-1782730558743 [id$="-extensionStart"],#mermaid-1782730558743 .extension{fill:transparent!important;stroke:#333333!important;stroke-width:1;}#mermaid-1782730558743 [id$="-extensionEnd"],#mermaid-1782730558743 .extension{fill:transparent!important;stroke:#333333!important;stroke-width:1;}#mermaid-1782730558743 [id$="-aggregationStart"],#mermaid-1782730558743 .aggregation{fill:transparent!important;stroke:#333333!important;stroke-width:1;}#mermaid-1782730558743 [id$="-aggregationEnd"],#mermaid-1782730558743 .aggregation{fill:transparent!important;stroke:#333333!important;stroke-width:1;}#mermaid-1782730558743 [id$="-lollipopStart"],#mermaid-1782730558743 .lollipop{fill:#ECECFF!important;stroke:#333333!important;stroke-width:1;}#mermaid-1782730558743 [id$="-lollipopEnd"],#mermaid-1782730558743 .lollipop{fill:#ECECFF!important;stroke:#333333!important;stroke-width:1;}#mermaid-1782730558743 .edgeTerminals{font-size:11px;line-height:initial;}#mermaid-1782730558743 .classTitleText{text-anchor:middle;font-size:18px;fill:#333;}#mermaid-1782730558743 .edgeLabel[data-look="neo"]{background-color:rgba(232,232,232, 0.8);text-align:center;}#mermaid-1782730558743 .edgeLabel[data-look="neo"] p{background-color:rgba(232,232,232, 0.8);}#mermaid-1782730558743 .edgeLabel[data-look="neo"] rect{opacity:0.5;background-color:rgba(232,232,232, 0.8);fill:rgba(232,232,232, 0.8);}#mermaid-1782730558743 .label-icon{display:inline-block;height:1em;overflow:visible;vertical-align:-0.125em;}#mermaid-1782730558743 .node .label-icon path{fill:currentColor;stroke:revert;stroke-width:revert;}#mermaid-1782730558743 .node .neo-node{stroke:#9370DB;}#mermaid-1782730558743 [data-look="neo"].node rect,#mermaid-1782730558743 [data-look="neo"].cluster rect,#mermaid-1782730558743 [data-look="neo"].node polygon{stroke:#9370DB;filter:drop-shadow(1px 2px 2px rgba(185, 185, 185, 1));}#mermaid-1782730558743 [data-look="neo"].swimlane.cluster rect{filter:none;}#mermaid-1782730558743 [data-look="neo"].node path{stroke:#9370DB;stroke-width:1px;}#mermaid-1782730558743 [data-look="neo"].node .outer-path{filter:drop-shadow(1px 2px 2px rgba(185, 185, 185, 1));}#mermaid-1782730558743 [data-look="neo"].node .neo-line path{stroke:#9370DB;filter:none;}#mermaid-1782730558743 [data-look="neo"].node circle{stroke:#9370DB;filter:drop-shadow(1px 2px 2px rgba(185, 185, 185, 1));}#mermaid-1782730558743 [data-look="neo"].node circle .state-start{fill:#000000;}#mermaid-1782730558743 [data-look="neo"].icon-shape .icon{fill:#9370DB;filter:drop-shadow(1px 2px 2px rgba(185, 185, 185, 1));}#mermaid-1782730558743 [data-look="neo"].icon-shape .icon-neo path{stroke:#9370DB;filter:drop-shadow(1px 2px 2px rgba(185, 185, 185, 1));}#mermaid-1782730558743 :root{--mermaid-font-family:"trebuchet ms",verdana,arial,sans-serif;}</style><g><defs><marker id="mermaid-1782730558743_class-aggregationStart" class="marker aggregation class" refX="18" refY="7" markerWidth="190" markerHeight="240" orient="auto"><path d="M 18,7 L9,13 L1,7 L9,1 Z"></path></marker></defs><defs><marker id="mermaid-1782730558743_class-aggregationEnd" class="marker aggregation class" refX="1" refY="7" markerWidth="20" markerHeight="28" orient="auto"><path d="M 18,7 L9,13 L1,7 L9,1 Z"></path></marker></defs><defs><marker id="mermaid-1782730558743_class-aggregationStart-margin" class="marker aggregation class" refX="15" refY="7" markerWidth="190" markerHeight="240" orient="auto" markerUnits="userSpaceOnUse"><path d="M 18,7 L9,13 L1,7 L9,1 Z" style="stroke-width: 2;"></path></marker></defs><defs><marker id="mermaid-1782730558743_class-aggregationEnd-margin" class="marker aggregation class" refX="1" refY="7" markerWidth="20" markerHeight="28" orient="auto" markerUnits="userSpaceOnUse"><path d="M 18,7 L9,13 L1,7 L9,1 Z" style="stroke-width: 2;"></path></marker></defs><defs><marker id="mermaid-1782730558743_class-extensionStart" class="marker extension class" refX="18" refY="7" markerWidth="20" markerHeight="28" orient="auto" markerUnits="userSpaceOnUse"><path d="M 1,7 L18,13 V 1 Z"></path></marker></defs><defs><marker id="mermaid-1782730558743_class-extensionEnd" class="marker extension class" refX="1" refY="7" markerWidth="20" markerHeight="28" orient="auto"><path d="M 1,1 V 13 L18,7 Z"></path></marker></defs><marker id="mermaid-1782730558743_class-extensionStart-margin" class="marker extension class" refX="18" refY="7" markerWidth="20" markerHeight="28" orient="auto" markerUnits="userSpaceOnUse" viewBox="0 0 20 14"><polygon points="10,7 18,13 18,1" style="stroke-width: 2; stroke-dasharray: 0;"></polygon></marker><defs><marker id="mermaid-1782730558743_class-extensionEnd-margin" class="marker extension class" refX="9" refY="7" markerWidth="20" markerHeight="28" orient="auto" markerUnits="userSpaceOnUse" viewBox="0 0 20 14"><polygon points="10,1 10,13 18,7" style="stroke-width: 2; stroke-dasharray: 0;"></polygon></marker></defs><defs><marker id="mermaid-1782730558743_class-compositionStart" class="marker composition class" refX="18" refY="7" markerWidth="190" markerHeight="240" orient="auto"><path d="M 18,7 L9,13 L1,7 L9,1 Z"></path></marker></defs><defs><marker id="mermaid-1782730558743_class-compositionEnd" class="marker composition class" refX="1" refY="7" markerWidth="20" markerHeight="28" orient="auto"><path d="M 18,7 L9,13 L1,7 L9,1 Z"></path></marker></defs><defs><marker id="mermaid-1782730558743_class-compositionStart-margin" class="marker composition class" refX="15" refY="7" markerWidth="190" markerHeight="240" orient="auto" markerUnits="userSpaceOnUse"><path viewBox="0 0 15 15" d="M 18,7 L9,13 L1,7 L9,1 Z" style="stroke-width: 0;"></path></marker></defs><defs><marker id="mermaid-1782730558743_class-compositionEnd-margin" class="marker composition class" refX="3.5" refY="7" markerWidth="20" markerHeight="28" orient="auto" markerUnits="userSpaceOnUse"><path d="M 18,7 L9,13 L1,7 L9,1 Z" style="stroke-width: 0;"></path></marker></defs><defs><marker id="mermaid-1782730558743_class-dependencyStart" class="marker dependency class" refX="6" refY="7" markerWidth="190" markerHeight="240" orient="auto"><path d="M 5,7 L9,13 L1,7 L9,1 Z"></path></marker></defs><defs><marker id="mermaid-1782730558743_class-dependencyEnd" class="marker dependency class" refX="13" refY="7" markerWidth="20" markerHeight="28" orient="auto"><path d="M 18,7 L9,13 L14,7 L9,1 Z"></path></marker></defs><defs><marker id="mermaid-1782730558743_class-dependencyStart-margin" class="marker dependency class" refX="4" refY="7" markerWidth="190" markerHeight="240" orient="auto" markerUnits="userSpaceOnUse"><path d="M 5,7 L9,13 L1,7 L9,1 Z" style="stroke-width: 0;"></path></marker></defs><defs><marker id="mermaid-1782730558743_class-dependencyEnd-margin" class="marker dependency class" refX="16" refY="7" markerWidth="20" markerHeight="28" orient="auto" markerUnits="userSpaceOnUse"><path d="M 18,7 L9,13 L14,7 L9,1 Z" style="stroke-width: 0;"></path></marker></defs><defs><marker id="mermaid-1782730558743_class-lollipopStart" class="marker lollipop class" refX="13" refY="7" markerWidth="190" markerHeight="240" orient="auto"><circle fill="transparent" cx="7" cy="7" r="6"></circle></marker></defs><defs><marker id="mermaid-1782730558743_class-lollipopEnd" class="marker lollipop class" refX="1" refY="7" markerWidth="190" markerHeight="240" orient="auto"><circle fill="transparent" cx="7" cy="7" r="6"></circle></marker></defs><defs><marker id="mermaid-1782730558743_class-lollipopStart-margin" class="marker lollipop class" refX="13" refY="7" markerWidth="190" markerHeight="240" orient="auto" markerUnits="userSpaceOnUse"><circle fill="transparent" cx="7" cy="7" r="6" stroke-width="2"></circle></marker></defs><defs><marker id="mermaid-1782730558743_class-lollipopEnd-margin" class="marker lollipop class" refX="1" refY="7" markerWidth="190" markerHeight="240" orient="auto" markerUnits="userSpaceOnUse"><circle fill="transparent" cx="7" cy="7" r="6" stroke-width="2"></circle></marker></defs><g class="root"><g class="clusters"></g><g class="edgePaths"><path d="M477.086,91.342L499.313,99.952C521.539,108.561,565.992,125.781,588.219,145.14C610.445,164.5,610.445,186,610.445,207.5C610.445,229,610.445,250.5,610.445,264.417C610.445,278.333,610.445,284.667,610.445,287.833L610.445,291" id="mermaid-1782730558743-id_App_AuthProvider_1" class=" edge-thickness-normal edge-pattern-solid relation" style=";;;" data-edge="true" data-et="edge" data-id="id_App_AuthProvider_1" data-points="W3sieCI6NDc3LjA4NTkzNzUsInkiOjkxLjM0MjE5MTM3MTQ1MTI2fSx7IngiOjYxMC40NDUzMTI1LCJ5IjoxNDN9LHsieCI6NjEwLjQ0NTMxMjUsInkiOjIwNy41fSx7IngiOjYxMC40NDUzMTI1LCJ5IjoyNzJ9LHsieCI6NjEwLjQ0NTMxMjUsInkiOjI5N31d" data-look="classic" marker-end="url(#mermaid-1782730558743_class-dependencyEnd)"></path><path d="M330.75,104.522L319.449,110.935C308.148,117.348,285.547,130.174,274.246,139.754C262.945,149.333,262.945,155.667,262.945,158.833L262.945,162" id="mermaid-1782730558743-id_App_Layout_2" class=" edge-thickness-normal edge-pattern-solid relation" style=";;;" data-edge="true" data-et="edge" data-id="id_App_Layout_2" data-points="W3sieCI6MzMwLjc1LCJ5IjoxMDQuNTIxNzkzMzQ0MjMyMzJ9LHsieCI6MjYyLjk0NTMxMjUsInkiOjE0M30seyJ4IjoyNjIuOTQ1MzEyNSwieSI6MTY4fV0=" data-look="classic" marker-end="url(#mermaid-1782730558743_class-dependencyEnd)"></path><path d="M225.238,219.431L197.548,228.192C169.857,236.954,114.475,254.477,86.785,274.238C59.094,294,59.094,316,59.094,327L59.094,338" id="mermaid-1782730558743-id_Layout_Dashboard_3" class=" edge-thickness-normal edge-pattern-solid relation" style=";;;" data-edge="true" data-et="edge" data-id="id_Layout_Dashboard_3" data-points="W3sieCI6MjI1LjIzODI4MTI1LCJ5IjoyMTkuNDMwNzU3MjkxMjI3NTR9LHsieCI6NTkuMDkzNzUsInkiOjI3Mn0seyJ4Ijo1OS4wOTM3NSwieSI6MzQ0fV0=" data-look="classic" marker-end="url(#mermaid-1782730558743_class-dependencyEnd)"></path><path d="M225.238,244.6L220.597,249.167C215.956,253.734,206.673,262.867,202.032,278.433C197.391,294,197.391,316,197.391,327L197.391,338" id="mermaid-1782730558743-id_Layout_Orders_4" class=" edge-thickness-normal edge-pattern-solid relation" style=";;;" data-edge="true" data-et="edge" data-id="id_Layout_Orders_4" data-points="W3sieCI6MjI1LjIzODI4MTI1LCJ5IjoyNDQuNjAwMzc1NDAyMjE2NjZ9LHsieCI6MTk3LjM5MDYyNSwieSI6MjcyfSx7IngiOjE5Ny4zOTA2MjUsInkiOjM0NH1d" data-look="classic" marker-end="url(#mermaid-1782730558743_class-dependencyEnd)"></path><path d="M300.652,244.6L305.294,249.167C309.935,253.734,319.217,262.867,323.859,278.433C328.5,294,328.5,316,328.5,327L328.5,338" id="mermaid-1782730558743-id_Layout_Dispatch_5" class=" edge-thickness-normal edge-pattern-solid relation" style=";;;" data-edge="true" data-et="edge" data-id="id_Layout_Dispatch_5" data-points="W3sieCI6MzAwLjY1MjM0Mzc1LCJ5IjoyNDQuNjAwMzc1NDAyMjE2NjZ9LHsieCI6MzI4LjUsInkiOjI3Mn0seyJ4IjozMjguNSwieSI6MzQ0fV0=" data-look="classic" marker-end="url(#mermaid-1782730558743_class-dependencyEnd)"></path><path d="M300.652,220.221L326.232,228.851C351.811,237.481,402.97,254.74,428.549,274.37C454.129,294,454.129,316,454.129,327L454.129,338" id="mermaid-1782730558743-id_Layout_Fleet_6" class=" edge-thickness-normal edge-pattern-solid relation" style=";;;" data-edge="true" data-et="edge" data-id="id_Layout_Fleet_6" data-points="W3sieCI6MzAwLjY1MjM0Mzc1LCJ5IjoyMjAuMjIxMjk4MjQ0ODk3MTN9LHsieCI6NDU0LjEyODkwNjI1LCJ5IjoyNzJ9LHsieCI6NDU0LjEyODkwNjI1LCJ5IjozNDR9XQ==" data-look="classic" marker-end="url(#mermaid-1782730558743_class-dependencyEnd)"></path><path d="M59.094,423L59.094,435C59.094,447,59.094,471,86.181,496.875C113.269,522.75,167.444,550.501,194.531,564.376L221.619,578.251" id="mermaid-1782730558743-id_Dashboard_apiClient_7" class=" edge-thickness-normal edge-pattern-solid relation" style=";;;" data-edge="true" data-et="edge" data-id="id_Dashboard_apiClient_7" data-points="W3sieCI6NTkuMDkzNzUsInkiOjQyM30seyJ4Ijo1OS4wOTM3NSwieSI6NDk1fSx7IngiOjIyNi45NTg5ODQzNzUsInkiOjU4MC45ODY4Nzc5NzIzOTN9XQ==" data-look="classic" marker-end="url(#mermaid-1782730558743_class-dependencyEnd)"></path><path d="M197.391,423L197.391,435C197.391,447,197.391,471,201.63,487.462C205.869,503.924,214.348,512.848,218.587,517.31L222.826,521.773" id="mermaid-1782730558743-id_Orders_apiClient_8" class=" edge-thickness-normal edge-pattern-solid relation" style=";;;" data-edge="true" data-et="edge" data-id="id_Orders_apiClient_8" data-points="W3sieCI6MTk3LjM5MDYyNSwieSI6NDIzfSx7IngiOjE5Ny4zOTA2MjUsInkiOjQ5NX0seyJ4IjoyMjYuOTU4OTg0Mzc1LCJ5Ijo1MjYuMTIyMzYzMjQ2MzM1M31d" data-look="classic" marker-end="url(#mermaid-1782730558743_class-dependencyEnd)"></path><path d="M328.5,423L328.5,435C328.5,447,328.5,471,328.5,486.167C328.5,501.333,328.5,507.667,328.5,510.833L328.5,514" id="mermaid-1782730558743-id_Dispatch_apiClient_9" class=" edge-thickness-normal edge-pattern-solid relation" style=";;;" data-edge="true" data-et="edge" data-id="id_Dispatch_apiClient_9" data-points="W3sieCI6MzI4LjUsInkiOjQyM30seyJ4IjozMjguNSwieSI6NDk1fSx7IngiOjMyOC41LCJ5Ijo1MjB9XQ==" data-look="classic" marker-end="url(#mermaid-1782730558743_class-dependencyEnd)"></path><path d="M454.129,423L454.129,435C454.129,447,454.129,471,450.787,486.671C447.446,502.341,440.763,509.682,437.422,513.353L434.08,517.023" id="mermaid-1782730558743-id_Fleet_apiClient_10" class=" edge-thickness-normal edge-pattern-solid relation" style=";;;" data-edge="true" data-et="edge" data-id="id_Fleet_apiClient_10" data-points="W3sieCI6NDU0LjEyODkwNjI1LCJ5Ijo0MjN9LHsieCI6NDU0LjEyODkwNjI1LCJ5Ijo0OTV9LHsieCI6NDMwLjA0MTAxNTYyNSwieSI6NTIxLjQ1OTkwNDg1MzcwNDh9XQ==" data-look="classic" marker-end="url(#mermaid-1782730558743_class-dependencyEnd)"></path><path d="M610.445,470L610.445,474.167C610.445,478.333,610.445,486.667,581.276,505.11C552.107,523.554,493.769,552.108,464.599,566.385L435.43,580.662" id="mermaid-1782730558743-id_AuthProvider_apiClient_11" class=" edge-thickness-normal edge-pattern-solid relation" style=";;;" data-edge="true" data-et="edge" data-id="id_AuthProvider_apiClient_11" data-points="W3sieCI6NjEwLjQ0NTMxMjUsInkiOjQ3MH0seyJ4Ijo2MTAuNDQ1MzEyNSwieSI6NDk1fSx7IngiOjQzMC4wNDEwMTU2MjUsInkiOjU4My4zMDAwNzc1ODU5Njh9XQ==" data-look="classic" marker-end="url(#mermaid-1782730558743_class-dependencyEnd)"></path></g><g class="edgeLabels"><g class="edgeLabel"><g class="label" data-id="id_App_AuthProvider_1" transform="translate(0, 0)"><text y="-10.1" text-anchor="middle"><tspan class="text-outer-tspan row" x="0" y="-0.1em" dy="1.1em" text-anchor="middle"></tspan></text></g></g><g><rect class="background" style="stroke: none"></rect></g><g class="edgeLabel"><g class="label" data-id="id_App_Layout_2" transform="translate(0, 0)"><text y="-10.1" text-anchor="middle"><tspan class="text-outer-tspan row" x="0" y="-0.1em" dy="1.1em" text-anchor="middle"></tspan></text></g></g><g><rect class="background" style="stroke: none"></rect></g><g class="edgeLabel"><g class="label" data-id="id_Layout_Dashboard_3" transform="translate(0, 0)"><text y="-10.1" text-anchor="middle"><tspan class="text-outer-tspan row" x="0" y="-0.1em" dy="1.1em" text-anchor="middle"></tspan></text></g></g><g><rect class="background" style="stroke: none"></rect></g><g class="edgeLabel"><g class="label" data-id="id_Layout_Orders_4" transform="translate(0, 0)"><text y="-10.1" text-anchor="middle"><tspan class="text-outer-tspan row" x="0" y="-0.1em" dy="1.1em" text-anchor="middle"></tspan></text></g></g><g><rect class="background" style="stroke: none"></rect></g><g class="edgeLabel"><g class="label" data-id="id_Layout_Dispatch_5" transform="translate(0, 0)"><text y="-10.1" text-anchor="middle"><tspan class="text-outer-tspan row" x="0" y="-0.1em" dy="1.1em" text-anchor="middle"></tspan></text></g></g><g><rect class="background" style="stroke: none"></rect></g><g class="edgeLabel"><g class="label" data-id="id_Layout_Fleet_6" transform="translate(0, 0)"><text y="-10.1" text-anchor="middle"><tspan class="text-outer-tspan row" x="0" y="-0.1em" dy="1.1em" text-anchor="middle"></tspan></text></g></g><g><rect class="background" style="stroke: none"></rect></g><g class="edgeLabel"><g class="label" data-id="id_Dashboard_apiClient_7" transform="translate(0, 0)"><text y="-10.1" text-anchor="middle"><tspan class="text-outer-tspan row" x="0" y="-0.1em" dy="1.1em" text-anchor="middle"></tspan></text></g></g><g><rect class="background" style="stroke: none"></rect></g><g class="edgeLabel"><g class="label" data-id="id_Orders_apiClient_8" transform="translate(0, 0)"><text y="-10.1" text-anchor="middle"><tspan class="text-outer-tspan row" x="0" y="-0.1em" dy="1.1em" text-anchor="middle"></tspan></text></g></g><g><rect class="background" style="stroke: none"></rect></g><g class="edgeLabel"><g class="label" data-id="id_Dispatch_apiClient_9" transform="translate(0, 0)"><text y="-10.1" text-anchor="middle"><tspan class="text-outer-tspan row" x="0" y="-0.1em" dy="1.1em" text-anchor="middle"></tspan></text></g></g><g><rect class="background" style="stroke: none"></rect></g><g class="edgeLabel"><g class="label" data-id="id_Fleet_apiClient_10" transform="translate(0, 0)"><text y="-10.1" text-anchor="middle"><tspan class="text-outer-tspan row" x="0" y="-0.1em" dy="1.1em" text-anchor="middle"></tspan></text></g></g><g><rect class="background" style="stroke: none"></rect></g><g class="edgeLabel"><g class="label" data-id="id_AuthProvider_apiClient_11" transform="translate(0, 0)"><text y="-10.1" text-anchor="middle"><tspan class="text-outer-tspan row" x="0" y="-0.1em" dy="1.1em" text-anchor="middle"></tspan></text></g></g><g><rect class="background" style="stroke: none"></rect></g></g><g class="nodes"><g class="node default " id="mermaid-1782730558743-classId-App-5" data-look="classic" transform="translate(403.91796875, 63)"><g class="basic label-container outer-path"><path d="M-73.16796875 -55 L73.16796875 -55 L73.16796875 55 L-73.16796875 55" stroke="none" stroke-width="0" fill="#ECECFF" style=""></path><path d="M-73.16796875 -55 C-26.453165313558138 -55, 20.261638122883724 -55, 73.16796875 -55 M-73.16796875 -55 C-43.68569585873402 -55, -14.20342296746805 -55, 73.16796875 -55 M73.16796875 -55 C73.16796875 -16.334102743390623, 73.16796875 22.331794513218753, 73.16796875 55 M73.16796875 -55 C73.16796875 -18.92377462539242, 73.16796875 17.152450749215163, 73.16796875 55 M73.16796875 55 C16.30098203191138 55, -40.56600468617724 55, -73.16796875 55 M73.16796875 55 C43.462441483771684 55, 13.756914217543361 55, -73.16796875 55 M-73.16796875 55 C-73.16796875 12.796653744223626, -73.16796875 -29.406692511552748, -73.16796875 -55 M-73.16796875 55 C-73.16796875 20.609280291120207, -73.16796875 -13.781439417759586, -73.16796875 -55" stroke="#9370DB" stroke-width="1.3" fill="none" stroke-dasharray="0 0" style=""></path></g><g class="annotation-group text" transform="translate(0, -35)"></g><g class="label-group text" transform="translate(-15.2265625, -35)"><g class="label" style="font-weight: bolder" transform="translate(0,-9.5)"><g><rect class="background" style="stroke: none"></rect><text y="-10.1" style=""><tspan class="text-outer-tspan row" x="0" y="-0.1em" dy="1.1em" font-weight=""><tspan font-style="normal" class="text-inner-tspan" font-weight="">App</tspan></tspan></text></g></g></g><g class="members-group text" transform="translate(-61.16796875, 8)"><g class="label" style="" transform="translate(0,-9.5)"><g><rect class="background" style="stroke: none"></rect><text y="-10.1" style=""><tspan class="text-outer-tspan row" x="0" y="-0.1em" dy="1.1em"><tspan font-style="normal" class="text-inner-tspan" font-weight="normal">+Router</tspan><tspan font-style="normal" class="text-inner-tspan" font-weight="normal"> routes</tspan></tspan></text></g></g></g><g class="methods-group text" transform="translate(-61.16796875, 51)"></g><g class="divider" style=""><path d="M-73.16796875 -12 C-27.550914537079656 -11.999688271691888, 18.066139675840688 -11.999376543383775, 73.16796875 -11.999 M-73.16796875 -12 C-40.293162365361134 -11.999775347006715, -7.418355980722268 -11.999550694013429, 73.16796875 -11.999" stroke="#9370DB" stroke-width="1.3" fill="none" stroke-dasharray="0 0" style=""></path></g><g class="divider" style=""><path d="M-73.16796875 31 C-19.845588741223402 31.000364383355993, 33.476791267553196 31.00072876671199, 73.16796875 31.001 M-73.16796875 31 C-38.359135344165246 31.000237869343653, -3.5503019383304917 31.000475738687303, 73.16796875 31.001" stroke="#9370DB" stroke-width="1.3" fill="none" stroke-dasharray="0 0" style=""></path></g></g><g class="node default " id="mermaid-1782730558743-classId-AuthProvider-6" data-look="classic" transform="translate(610.4453125, 383.5)"><g class="basic label-container outer-path"><path d="M-74.59375 -86.5 L74.59375 -86.5 L74.59375 86.5 L-74.59375 86.5" stroke="none" stroke-width="0" fill="#ECECFF" style=""></path><path d="M-74.59375 -86.5 C-44.32911066836877 -86.5, -14.06447133673754 -86.5, 74.59375 -86.5 M-74.59375 -86.5 C-23.375804124663752 -86.5, 27.842141750672496 -86.5, 74.59375 -86.5 M74.59375 -86.5 C74.59375 -19.5859839856722, 74.59375 47.3280320286556, 74.59375 86.5 M74.59375 -86.5 C74.59375 -43.81894671806137, 74.59375 -1.137893436122738, 74.59375 86.5 M74.59375 86.5 C39.46322982096713 86.5, 4.332709641934258 86.5, -74.59375 86.5 M74.59375 86.5 C19.579813301959405 86.5, -35.43412339608119 86.5, -74.59375 86.5 M-74.59375 86.5 C-74.59375 44.228140361815456, -74.59375 1.9562807236309112, -74.59375 -86.5 M-74.59375 86.5 C-74.59375 40.03199407143701, -74.59375 -6.436011857125976, -74.59375 -86.5" stroke="#9370DB" stroke-width="1.3" fill="none" stroke-dasharray="0 0" style=""></path></g><g class="annotation-group text" transform="translate(0, -66.5)"></g><g class="label-group text" transform="translate(-50.9453125, -66.5)"><g class="label" style="font-weight: bolder" transform="translate(0,-9.5)"><g><rect class="background" style="stroke: none"></rect><text y="-10.1" style=""><tspan class="text-outer-tspan row" x="0" y="-0.1em" dy="1.1em" font-weight=""><tspan font-style="normal" class="text-inner-tspan" font-weight="">AuthProvider</tspan></tspan></text></g></g></g><g class="members-group text" transform="translate(-62.59375, -23.5)"><g class="label" style="" transform="translate(0,-9.5)"><g><rect class="background" style="stroke: none"></rect><text y="-10.1" style=""><tspan class="text-outer-tspan row" x="0" y="-0.1em" dy="1.1em"><tspan font-style="normal" class="text-inner-tspan" font-weight="normal">+user</tspan></tspan></text></g></g><g class="label" style="" transform="translate(0,12.5)"><g><rect class="background" style="stroke: none"></rect><text y="-10.1" style=""><tspan class="text-outer-tspan row" x="0" y="-0.1em" dy="1.1em"><tspan font-style="normal" class="text-inner-tspan" font-weight="normal">+company</tspan></tspan></text></g></g></g><g class="methods-group text" transform="translate(-62.59375, 41.5)"><g class="label" style="" transform="translate(0,-9.5)"><g><rect class="background" style="stroke: none"></rect><text y="-10.1" style=""><tspan class="text-outer-tspan row" x="0" y="-0.1em" dy="1.1em"><tspan font-style="normal" class="text-inner-tspan" font-weight="normal">+login()</tspan></tspan></text></g></g><g class="label" style="" transform="translate(0,12.5)"><g><rect class="background" style="stroke: none"></rect><text y="-10.1" style=""><tspan class="text-outer-tspan row" x="0" y="-0.1em" dy="1.1em"><tspan font-style="normal" class="text-inner-tspan" font-weight="normal">+logout()</tspan></tspan></text></g></g></g><g class="divider" style=""><path d="M-74.59375 -43.5 C-39.2297605670328 -43.49976295608256, -3.8657711340655965 -43.499525912165126, 74.59375 -43.499 M-74.59375 -43.5 C-18.407600028234427 -43.499623385672585, 37.77854994353115 -43.49924677134516, 74.59375 -43.499" stroke="#9370DB" stroke-width="1.3" fill="none" stroke-dasharray="0 0" style=""></path></g><g class="divider" style=""><path d="M-74.59375 21.5 C-16.577568233272267 21.500388880983774, 41.43861353345547 21.500777761967548, 74.59375 21.501 M-74.59375 21.5 C-15.818584749642312 21.500393968430668, 42.956580500715376 21.50078793686134, 74.59375 21.501" stroke="#9370DB" stroke-width="1.3" fill="none" stroke-dasharray="0 0" style=""></path></g></g><g class="node default " id="mermaid-1782730558743-classId-apiClient-7" data-look="classic" transform="translate(328.5, 633)"><g class="basic label-container outer-path"><path d="M-101.541015625 -113 L101.541015625 -113 L101.541015625 113 L-101.541015625 113" stroke="none" stroke-width="0" fill="#ECECFF" style=""></path><path d="M-101.541015625 -113 C-35.88665052372944 -113, 29.767714577541113 -113, 101.541015625 -113 M-101.541015625 -113 C-31.10666927528915 -113, 39.3276770744217 -113, 101.541015625 -113 M101.541015625 -113 C101.541015625 -45.39973908380814, 101.541015625 22.200521832383714, 101.541015625 113 M101.541015625 -113 C101.541015625 -25.760050488757102, 101.541015625 61.479899022485796, 101.541015625 113 M101.541015625 113 C34.36846006681236 113, -32.80409549137528 113, -101.541015625 113 M101.541015625 113 C27.764618624785086 113, -46.01177837542983 113, -101.541015625 113 M-101.541015625 113 C-101.541015625 53.579489632053956, -101.541015625 -5.841020735892087, -101.541015625 -113 M-101.541015625 113 C-101.541015625 50.001664033628764, -101.541015625 -12.996671932742473, -101.541015625 -113" stroke="#9370DB" stroke-width="1.3" fill="none" stroke-dasharray="0 0" style=""></path></g><g class="annotation-group text" transform="translate(0, -93)"></g><g class="label-group text" transform="translate(-33.76953125, -93)"><g class="label" style="font-weight: bolder" transform="translate(0,-9.5)"><g><rect class="background" style="stroke: none"></rect><text y="-10.1" style=""><tspan class="text-outer-tspan row" x="0" y="-0.1em" dy="1.1em" font-weight=""><tspan font-style="normal" class="text-inner-tspan" font-weight="">apiClient</tspan></tspan></text></g></g></g><g class="members-group text" transform="translate(-89.541015625, -50)"></g><g class="methods-group text" transform="translate(-89.541015625, -20)"><g class="label" style="" transform="translate(0,-9.5)"><g><rect class="background" style="stroke: none"></rect><text y="-10.1" style=""><tspan class="text-outer-tspan row" x="0" y="-0.1em" dy="1.1em"><tspan font-style="normal" class="text-inner-tspan" font-weight="normal">+login()</tspan></tspan></text></g></g><g class="label" style="" transform="translate(0,12.5)"><g><rect class="background" style="stroke: none"></rect><text y="-10.1" style=""><tspan class="text-outer-tspan row" x="0" y="-0.1em" dy="1.1em"><tspan font-style="normal" class="text-inner-tspan" font-weight="normal">+me()</tspan></tspan></text></g></g><g class="label" style="" transform="translate(0,34.5)"><g><rect class="background" style="stroke: none"></rect><text y="-10.1" style=""><tspan class="text-outer-tspan row" x="0" y="-0.1em" dy="1.1em"><tspan font-style="normal" class="text-inner-tspan" font-weight="normal">+orders()</tspan></tspan></text></g></g><g class="label" style="" transform="translate(0,56.5)"><g><rect class="background" style="stroke: none"></rect><text y="-10.1" style=""><tspan class="text-outer-tspan row" x="0" y="-0.1em" dy="1.1em"><tspan font-style="normal" class="text-inner-tspan" font-weight="normal">+analytics()</tspan></tspan></text></g></g><g class="label" style="" transform="translate(0,78.5)"><g><rect class="background" style="stroke: none"></rect><text y="-10.1" style=""><tspan class="text-outer-tspan row" x="0" y="-0.1em" dy="1.1em"><tspan font-style="normal" class="text-inner-tspan" font-weight="normal">+fleet()</tspan></tspan></text></g></g><g class="label" style="" transform="translate(0,100.5)"><g><rect class="background" style="stroke: none"></rect><text y="-10.1" style=""><tspan class="text-outer-tspan row" x="0" y="-0.1em" dy="1.1em"><tspan font-style="normal" class="text-inner-tspan" font-weight="normal">+dispatchOptimize()</tspan></tspan></text></g></g></g><g class="divider" style=""><path d="M-101.541015625 -70 C-57.15411879837267 -69.99978143365736, -12.767221971745343 -69.99956286731471, 101.541015625 -69.999 M-101.541015625 -70 C-32.181669459522794 -69.999658466356, 37.17767670595441 -69.99931693271198, 101.541015625 -69.999" stroke="#9370DB" stroke-width="1.3" fill="none" stroke-dasharray="0 0" style=""></path></g><g class="divider" style=""><path d="M-101.541015625 -46 C-29.263533726769182 -45.99964409710966, 43.013948171461635 -45.99928819421932, 101.541015625 -45.999 M-101.541015625 -46 C-52.634006459883985 -45.99975917608828, -3.726997294767969 -45.999518352176565, 101.541015625 -45.999" stroke="#9370DB" stroke-width="1.3" fill="none" stroke-dasharray="0 0" style=""></path></g></g><g class="node default " id="mermaid-1782730558743-classId-Layout-8" data-look="classic" transform="translate(262.9453125, 207.5)"><g class="basic label-container outer-path"><path d="M-37.70703125 -39.5 L37.70703125 -39.5 L37.70703125 39.5 L-37.70703125 39.5" stroke="none" stroke-width="0" fill="#ECECFF" style=""></path><path d="M-37.70703125 -39.5 C-18.48808171558092 -39.5, 0.7308678188381634 -39.5, 37.70703125 -39.5 M-37.70703125 -39.5 C-10.886949513465566 -39.5, 15.933132223068867 -39.5, 37.70703125 -39.5 M37.70703125 -39.5 C37.70703125 -14.86792651801412, 37.70703125 9.764146963971761, 37.70703125 39.5 M37.70703125 -39.5 C37.70703125 -22.31525243784894, 37.70703125 -5.130504875697881, 37.70703125 39.5 M37.70703125 39.5 C13.060284324930123 39.5, -11.586462600139754 39.5, -37.70703125 39.5 M37.70703125 39.5 C17.45534592522809 39.5, -2.796339399543818 39.5, -37.70703125 39.5 M-37.70703125 39.5 C-37.70703125 19.641483826350285, -37.70703125 -0.21703234729942977, -37.70703125 -39.5 M-37.70703125 39.5 C-37.70703125 17.963032375616542, -37.70703125 -3.573935248766915, -37.70703125 -39.5" stroke="#9370DB" stroke-width="1.3" fill="none" stroke-dasharray="0 0" style=""></path></g><g class="annotation-group text" transform="translate(0, -19.5)"></g><g class="label-group text" transform="translate(-25.70703125, -19.5)"><g class="label" style="font-weight: bolder" transform="translate(0,-9.5)"><g><rect class="background" style="stroke: none"></rect><text y="-10.1" style=""><tspan class="text-outer-tspan row" x="0" y="-0.1em" dy="1.1em" font-weight=""><tspan font-style="normal" class="text-inner-tspan" font-weight="">Layout</tspan></tspan></text></g></g></g><g class="members-group text" transform="translate(-25.70703125, 23.5)"></g><g class="methods-group text" transform="translate(-25.70703125, 53.5)"></g><g class="divider" style=""><path d="M-37.70703125 3.5 C-7.899381837458222 3.5003952531984672, 21.908267575083556 3.5007905063969345, 37.70703125 3.501 M-37.70703125 3.5 C-21.536244628565058 3.5002144266743542, -5.3654580071301154 3.500428853348709, 37.70703125 3.501" stroke="#9370DB" stroke-width="1.3" fill="none" stroke-dasharray="0 0" style=""></path></g><g class="divider" style=""><path d="M-37.70703125 21.5 C-10.565649004975658 21.500359898158848, 16.575733240048685 21.500719796317696, 37.70703125 21.501 M-37.70703125 21.5 C-19.484046630472342 21.500241639079178, -1.2610620109446842 21.500483278158356, 37.70703125 21.501" stroke="#9370DB" stroke-width="1.3" fill="none" stroke-dasharray="0 0" style=""></path></g></g><g class="node default " id="mermaid-1782730558743-classId-Dashboard-9" data-look="classic" transform="translate(59.09375, 383.5)"><g class="basic label-container outer-path"><path d="M-51.09375 -39.5 L51.09375 -39.5 L51.09375 39.5 L-51.09375 39.5" stroke="none" stroke-width="0" fill="#ECECFF" style=""></path><path d="M-51.09375 -39.5 C-11.07320342828833 -39.5, 28.94734314342334 -39.5, 51.09375 -39.5 M-51.09375 -39.5 C-21.20623254738363 -39.5, 8.681284905232737 -39.5, 51.09375 -39.5 M51.09375 -39.5 C51.09375 -17.950170032201516, 51.09375 3.599659935596968, 51.09375 39.5 M51.09375 -39.5 C51.09375 -14.67143314987334, 51.09375 10.157133700253318, 51.09375 39.5 M51.09375 39.5 C24.595899755994985 39.5, -1.90195048801003 39.5, -51.09375 39.5 M51.09375 39.5 C14.5166042425261 39.5, -22.0605415149478 39.5, -51.09375 39.5 M-51.09375 39.5 C-51.09375 12.820424927951386, -51.09375 -13.859150144097228, -51.09375 -39.5 M-51.09375 39.5 C-51.09375 17.36205963968088, -51.09375 -4.775880720638241, -51.09375 -39.5" stroke="#9370DB" stroke-width="1.3" fill="none" stroke-dasharray="0 0" style=""></path></g><g class="annotation-group text" transform="translate(0, -19.5)"></g><g class="label-group text" transform="translate(-39.09375, -19.5)"><g class="label" style="font-weight: bolder" transform="translate(0,-9.5)"><g><rect class="background" style="stroke: none"></rect><text y="-10.1" style=""><tspan class="text-outer-tspan row" x="0" y="-0.1em" dy="1.1em" font-weight=""><tspan font-style="normal" class="text-inner-tspan" font-weight="">Dashboard</tspan></tspan></text></g></g></g><g class="members-group text" transform="translate(-39.09375, 23.5)"></g><g class="methods-group text" transform="translate(-39.09375, 53.5)"></g><g class="divider" style=""><path d="M-51.09375 3.5 C-11.210167603985127 3.500390298054028, 28.673414792029746 3.5007805961080565, 51.09375 3.501 M-51.09375 3.5 C-29.768112401029512 3.500208691254791, -8.442474802059024 3.5004173825095823, 51.09375 3.501" stroke="#9370DB" stroke-width="1.3" fill="none" stroke-dasharray="0 0" style=""></path></g><g class="divider" style=""><path d="M-51.09375 21.5 C-24.658972178360084 21.500258688957278, 1.7758056432798313 21.50051737791455, 51.09375 21.501 M-51.09375 21.5 C-17.534505402870018 21.50032840850982, 16.024739194259965 21.50065681701964, 51.09375 21.501" stroke="#9370DB" stroke-width="1.3" fill="none" stroke-dasharray="0 0" style=""></path></g></g><g class="node default " id="mermaid-1782730558743-classId-Orders-10" data-look="classic" transform="translate(197.390625, 383.5)"><g class="basic label-container outer-path"><path d="M-37.203125 -39.5 L37.203125 -39.5 L37.203125 39.5 L-37.203125 39.5" stroke="none" stroke-width="0" fill="#ECECFF" style=""></path><path d="M-37.203125 -39.5 C-17.191643310235015 -39.5, 2.819838379529969 -39.5, 37.203125 -39.5 M-37.203125 -39.5 C-11.284021267096772 -39.5, 14.635082465806455 -39.5, 37.203125 -39.5 M37.203125 -39.5 C37.203125 -12.132912693538078, 37.203125 15.234174612923844, 37.203125 39.5 M37.203125 -39.5 C37.203125 -22.675888517298187, 37.203125 -5.851777034596374, 37.203125 39.5 M37.203125 39.5 C20.518168878102223 39.5, 3.8332127562044462 39.5, -37.203125 39.5 M37.203125 39.5 C19.0349297375721 39.5, 0.8667344751441988 39.5, -37.203125 39.5 M-37.203125 39.5 C-37.203125 10.954409450245112, -37.203125 -17.591181099509775, -37.203125 -39.5 M-37.203125 39.5 C-37.203125 12.402519581829765, -37.203125 -14.69496083634047, -37.203125 -39.5" stroke="#9370DB" stroke-width="1.3" fill="none" stroke-dasharray="0 0" style=""></path></g><g class="annotation-group text" transform="translate(0, -19.5)"></g><g class="label-group text" transform="translate(-25.203125, -19.5)"><g class="label" style="font-weight: bolder" transform="translate(0,-9.5)"><g><rect class="background" style="stroke: none"></rect><text y="-10.1" style=""><tspan class="text-outer-tspan row" x="0" y="-0.1em" dy="1.1em" font-weight=""><tspan font-style="normal" class="text-inner-tspan" font-weight="">Orders</tspan></tspan></text></g></g></g><g class="members-group text" transform="translate(-25.203125, 23.5)"></g><g class="methods-group text" transform="translate(-25.203125, 53.5)"></g><g class="divider" style=""><path d="M-37.203125 3.5 C-19.166911211051946 3.500242401865286, -1.1306974221038928 3.5004848037305725, 37.203125 3.501 M-37.203125 3.5 C-19.328946921807297 3.5002402241488877, -1.4547688436145947 3.500480448297776, 37.203125 3.501" stroke="#9370DB" stroke-width="1.3" fill="none" stroke-dasharray="0 0" style=""></path></g><g class="divider" style=""><path d="M-37.203125 21.5 C-8.053532787458181 21.50039176268408, 21.096059425083638 21.500783525368167, 37.203125 21.501 M-37.203125 21.5 C-11.586807111544616 21.500344276426894, 14.029510776910769 21.500688552853784, 37.203125 21.501" stroke="#9370DB" stroke-width="1.3" fill="none" stroke-dasharray="0 0" style=""></path></g></g><g class="node default " id="mermaid-1782730558743-classId-Dispatch-11" data-look="classic" transform="translate(328.5, 383.5)"><g class="basic label-container outer-path"><path d="M-43.90625 -39.5 L43.90625 -39.5 L43.90625 39.5 L-43.90625 39.5" stroke="none" stroke-width="0" fill="#ECECFF" style=""></path><path d="M-43.90625 -39.5 C-20.84654392094226 -39.5, 2.2131621581154803 -39.5, 43.90625 -39.5 M-43.90625 -39.5 C-11.759611912615398 -39.5, 20.387026174769204 -39.5, 43.90625 -39.5 M43.90625 -39.5 C43.90625 -21.89628088811286, 43.90625 -4.2925617762257176, 43.90625 39.5 M43.90625 -39.5 C43.90625 -21.00445234183899, 43.90625 -2.508904683677983, 43.90625 39.5 M43.90625 39.5 C17.42631389043568 39.5, -9.053622219128641 39.5, -43.90625 39.5 M43.90625 39.5 C19.83674188668268 39.5, -4.232766226634638 39.5, -43.90625 39.5 M-43.90625 39.5 C-43.90625 9.890475322043368, -43.90625 -19.719049355913263, -43.90625 -39.5 M-43.90625 39.5 C-43.90625 17.79335282216146, -43.90625 -3.913294355677081, -43.90625 -39.5" stroke="#9370DB" stroke-width="1.3" fill="none" stroke-dasharray="0 0" style=""></path></g><g class="annotation-group text" transform="translate(0, -19.5)"></g><g class="label-group text" transform="translate(-31.90625, -19.5)"><g class="label" style="font-weight: bolder" transform="translate(0,-9.5)"><g><rect class="background" style="stroke: none"></rect><text y="-10.1" style=""><tspan class="text-outer-tspan row" x="0" y="-0.1em" dy="1.1em" font-weight=""><tspan font-style="normal" class="text-inner-tspan" font-weight="">Dispatch</tspan></tspan></text></g></g></g><g class="members-group text" transform="translate(-31.90625, 23.5)"></g><g class="methods-group text" transform="translate(-31.90625, 53.5)"></g><g class="divider" style=""><path d="M-43.90625 3.5 C-18.781526238556406 3.500286117850664, 6.343197522887188 3.5005722357013282, 43.90625 3.501 M-43.90625 3.5 C-18.607091060829365 3.5002881043010867, 6.69206787834127 3.500576208602173, 43.90625 3.501" stroke="#9370DB" stroke-width="1.3" fill="none" stroke-dasharray="0 0" style=""></path></g><g class="divider" style=""><path d="M-43.90625 21.5 C-16.13355180990655 21.5003162727196, 11.6391463801869 21.500632545439206, 43.90625 21.501 M-43.90625 21.5 C-17.33407935438533 21.500302601231553, 9.238091291229338 21.500605202463102, 43.90625 21.501" stroke="#9370DB" stroke-width="1.3" fill="none" stroke-dasharray="0 0" style=""></path></g></g><g class="node default " id="mermaid-1782730558743-classId-Fleet-12" data-look="classic" transform="translate(454.12890625, 383.5)"><g class="basic label-container outer-path"><path d="M-31.72265625 -39.5 L31.72265625 -39.5 L31.72265625 39.5 L-31.72265625 39.5" stroke="none" stroke-width="0" fill="#ECECFF" style=""></path><path d="M-31.72265625 -39.5 C-12.485420814651068 -39.5, 6.751814620697864 -39.5, 31.72265625 -39.5 M-31.72265625 -39.5 C-10.734984026203485 -39.5, 10.25268819759303 -39.5, 31.72265625 -39.5 M31.72265625 -39.5 C31.72265625 -21.25070372097508, 31.72265625 -3.001407441950157, 31.72265625 39.5 M31.72265625 -39.5 C31.72265625 -14.873401188456604, 31.72265625 9.753197623086791, 31.72265625 39.5 M31.72265625 39.5 C14.503556067994012 39.5, -2.7155441140119763 39.5, -31.72265625 39.5 M31.72265625 39.5 C10.032271221880208 39.5, -11.658113806239584 39.5, -31.72265625 39.5 M-31.72265625 39.5 C-31.72265625 16.92718775257904, -31.72265625 -5.645624494841918, -31.72265625 -39.5 M-31.72265625 39.5 C-31.72265625 7.943128543181974, -31.72265625 -23.613742913636052, -31.72265625 -39.5" stroke="#9370DB" stroke-width="1.3" fill="none" stroke-dasharray="0 0" style=""></path></g><g class="annotation-group text" transform="translate(0, -19.5)"></g><g class="label-group text" transform="translate(-19.72265625, -19.5)"><g class="label" style="font-weight: bolder" transform="translate(0,-9.5)"><g><rect class="background" style="stroke: none"></rect><text y="-10.1" style=""><tspan class="text-outer-tspan row" x="0" y="-0.1em" dy="1.1em" font-weight=""><tspan font-style="normal" class="text-inner-tspan" font-weight="">Fleet</tspan></tspan></text></g></g></g><g class="members-group text" transform="translate(-19.72265625, 23.5)"></g><g class="methods-group text" transform="translate(-19.72265625, 53.5)"></g><g class="divider" style=""><path d="M-31.72265625 3.5 C-9.803344984649907 3.5003454835416776, 12.115966280700185 3.5006909670833553, 31.72265625 3.501 M-31.72265625 3.5 C-18.834014843329363 3.5002031456840355, -5.945373436658723 3.5004062913680714, 31.72265625 3.501" stroke="#9370DB" stroke-width="1.3" fill="none" stroke-dasharray="0 0" style=""></path></g><g class="divider" style=""><path d="M-31.72265625 21.5 C-16.051784903597536 21.50024699809535, -0.38091355719506836 21.500493996190702, 31.72265625 21.501 M-31.72265625 21.5 C-11.166827292570868 21.50032399287114, 9.389001664858263 21.500647985742287, 31.72265625 21.501" stroke="#9370DB" stroke-width="1.3" fill="none" stroke-dasharray="0 0" style=""></path></g></g></g></g></g><defs><filter id="mermaid-1782730558743-drop-shadow" height="130%" width="130%"><feDropShadow dx="4" dy="4" stdDeviation="0" flood-opacity="0.06" flood-color="#000000"></feDropShadow></filter></defs><defs><filter id="mermaid-1782730558743-drop-shadow-small" height="150%" width="150%"><feDropShadow dx="2" dy="2" stdDeviation="0" flood-opacity="0.06" flood-color="#000000"></feDropShadow></filter></defs></svg>